<svg version="1.1" xmlns="http://www.w3.org/2000/svg" viewBox="0 0 1023.8299264044285 727.0821052785241" width="1023.8299264044285" height="727.0821052785241">
  <!-- svg-source:excalidraw -->

  <defs>
    <style class="style-fonts">
      @font-face {
        font-family: "Virgil";
        src: url("https://excalidraw.com/Virgil.woff2");
      }
      @font-face {
        font-family: "Cascadia";
        src: url("https://excalidraw.com/Cascadia.woff2");
      }
      @font-face {
        font-family: "Assistant";
        src: url("https://excalidraw.com/Assistant-Regular.woff2");
      }
    </style>

  </defs>
  <g stroke-linecap="round" transform="translate(-123.01817486139203 311.9093292376822) rotate(90 190.09177215189766 54.24367088607573)"><path d="M27.12 0 C138.53 -4.14, 245.88 -2.32, 353.06 0 C367.68 -1.13, 376.97 7.73, 380.18 27.12 C381.46 42.66, 384.08 58.72, 380.18 81.37 C379.7 99.93, 368.15 111.88, 353.06 108.49 C248.79 112.63, 150.05 112.97, 27.12 108.49 C12.43 112, -2.99 99.6, 0 81.37 C2.06 63.42, -0.09 44.85, 0 27.12 C-1.93 7.41, 7.33 2.23, 27.12 0" stroke="none" stroke-width="0" fill="#b2f2bb"></path><path d="M27.12 0 C96.29 -1.38, 167.5 -2.16, 353.06 0 M27.12 0 C102.91 0.86, 177.88 1.49, 353.06 0 M353.06 0 C372.01 0.81, 380.4 10.32, 380.18 27.12 M353.06 0 C370.67 0.52, 380.39 10.36, 380.18 27.12 M380.18 27.12 C380.93 44.34, 378.47 60.61, 380.18 81.37 M380.18 27.12 C380.51 48.82, 381.1 69.44, 380.18 81.37 M380.18 81.37 C380.75 98.29, 372.32 110.13, 353.06 108.49 M380.18 81.37 C380.89 100.76, 368.93 106.96, 353.06 108.49 M353.06 108.49 C238.39 108.87, 124.39 111.05, 27.12 108.49 M353.06 108.49 C244.67 107.29, 137.07 107.8, 27.12 108.49 M27.12 108.49 C8.46 107.14, -1.75 99.25, 0 81.37 M27.12 108.49 C8.99 109.9, 1.82 99.41, 0 81.37 M0 81.37 C2.09 61.48, 1.61 40.13, 0 27.12 M0 81.37 C-0.7 68.69, 0.5 57.2, 0 27.12 M0 27.12 C-1.92 8.73, 10.63 -0.02, 27.12 0 M0 27.12 C1.41 9.94, 10.96 -2.27, 27.12 0" stroke="#2f9e44" stroke-width="2" fill="none"></path></g><g transform="translate(3.4819301152126627 355.037493794644) rotate(90 63.59166717529297 11.115506329113828)"><text x="63.59166717529297" y="0" font-family="Virgil, Segoe UI Emoji" font-size="17.784810126582194px" fill="#2f9e44" text-anchor="middle" style="white-space: pre;" direction="ltr" dominant-baseline="text-before-edge">Search Pipeline</text></g><g stroke-linecap="round" transform="translate(60.24968648688059 184.1108985278454) rotate(359.4975663324666 95.8474994540071 53.76013847549939)"><path d="M26.88 0 C59.62 -2.02, 96.07 -2.2, 164.81 0 C181.76 2.64, 192.63 9.52, 191.69 26.88 C192.06 44.6, 189.56 64.74, 191.69 80.64 C192.19 100.37, 184.72 104.64, 164.81 107.52 C116.2 113.28, 57.83 109.93, 26.88 107.52 C11.11 108.93, -3.28 101, 0 80.64 C-2.01 60.54, -1.79 45.94, 0 26.88 C-0.14 12.03, 7.61 2.96, 26.88 0" stroke="none" stroke-width="0" fill="#a5d8ff"></path><path d="M26.88 0 C64.23 -0.43, 103.11 2.65, 164.81 0 M26.88 0 C58.29 0.19, 88.94 0.43, 164.81 0 M164.81 0 C182.33 0.45, 191.87 10.11, 191.69 26.88 M164.81 0 C182.7 -1.18, 191.78 10.14, 191.69 26.88 M191.69 26.88 C193.01 46.4, 191.4 64.96, 191.69 80.64 M191.69 26.88 C192.38 46.77, 192.68 68.63, 191.69 80.64 M191.69 80.64 C192.31 99.7, 180.81 106.19, 164.81 107.52 M191.69 80.64 C192.87 98.47, 184.39 107.08, 164.81 107.52 M164.81 107.52 C136.43 106.89, 105.58 107.21, 26.88 107.52 M164.81 107.52 C119.8 108.2, 74.49 108.78, 26.88 107.52 M26.88 107.52 C8.92 108.75, 1.58 98.53, 0 80.64 M26.88 107.52 C11.07 106.35, -0.65 100.65, 0 80.64 M0 80.64 C-2.02 60.53, -2.01 39.46, 0 26.88 M0 80.64 C-1.18 69.21, 0.57 58.09, 0 26.88 M0 26.88 C1.22 9.74, 10.63 -1.98, 26.88 0 M0 26.88 C0.82 10.23, 10.78 1.85, 26.88 0" stroke="#1971c2" stroke-width="2" fill="none"></path></g><g transform="translate(107.4471844150089 215.64002434511713) rotate(359.4975663324666 48.650001525878906 22.23101265822777)"><text x="48.650001525878906" y="0" font-family="Virgil, Segoe UI Emoji" font-size="17.784810126582194px" fill="#1971c2" text-anchor="middle" style="white-space: pre;" direction="ltr" dominant-baseline="text-before-edge">OpenSearch</text><text x="48.650001525878906" y="22.23101265822774" font-family="Virgil, Segoe UI Emoji" font-size="17.784810126582194px" fill="#1971c2" text-anchor="middle" style="white-space: pre;" direction="ltr" dominant-baseline="text-before-edge">Index</text></g><g stroke-linecap="round" transform="translate(89.80364258191912 453.14136179621187) rotate(0.12235881662207387 49.3617268604869 44.791701618682964)"><path d="M22.4 0 C35.91 2.99, 52.31 0.91, 76.33 0 C92 3.18, 100.72 6.98, 98.72 22.4 C98.55 38.24, 100.03 47.59, 98.72 67.19 C101.49 84.39, 94.53 92.97, 76.33 89.58 C57.04 91.04, 30.17 92.07, 22.4 89.58 C9.03 89.88, 2.5 80.18, 0 67.19 C0.25 58.85, -0.97 47.34, 0 22.4 C-1.21 7.83, 6.41 -1.47, 22.4 0" stroke="none" stroke-width="0" fill="#b2f2bb"></path><path d="M22.4 0 C33.09 0.4, 47.11 0.43, 76.33 0 M22.4 0 C40.55 -0.12, 59.2 0.23, 76.33 0 M76.33 0 C91.23 -1.03, 98.8 8.49, 98.72 22.4 M76.33 0 C92.44 -1.65, 99.99 9.43, 98.72 22.4 M98.72 22.4 C100.36 38.74, 99.81 52.66, 98.72 67.19 M98.72 22.4 C99.29 33.82, 98.03 43.43, 98.72 67.19 M98.72 67.19 C99.74 82.04, 92.7 89.2, 76.33 89.58 M98.72 67.19 C96.66 82.38, 92.82 90.3, 76.33 89.58 M76.33 89.58 C64.87 89.04, 54.41 88.67, 22.4 89.58 M76.33 89.58 C63.76 90.14, 52.04 89.52, 22.4 89.58 M22.4 89.58 C9.3 88.56, -0.57 83.94, 0 67.19 M22.4 89.58 C9.04 91.11, 1.47 80.21, 0 67.19 M0 67.19 C-1.44 55.25, -0.86 39.73, 0 22.4 M0 67.19 C0.26 54.85, 0.48 40.74, 0 22.4 M0 22.4 C0.71 8.57, 9.05 1.6, 22.4 0 M0 22.4 C-0.86 7.4, 8.29 -2.21, 22.4 0" stroke="#2f9e44" stroke-width="2" fill="none"></path></g><g transform="translate(96.88203661769899 475.7020507566672) rotate(0.12235881662207387 42.28333282470703 22.23101265822777)"><text x="42.28333282470703" y="0" font-family="Virgil, Segoe UI Emoji" font-size="17.784810126582194px" fill="#2f9e44" text-anchor="middle" style="white-space: pre;" direction="ltr" dominant-baseline="text-before-edge">Remote </text><text x="42.28333282470703" y="22.23101265822774" font-family="Virgil, Segoe UI Emoji" font-size="17.784810126582194px" fill="#2f9e44" text-anchor="middle" style="white-space: pre;" direction="ltr" dominant-baseline="text-before-edge">Processor</text></g><g stroke-linecap="round" transform="translate(102.75234266914822 319.9005302030189) rotate(359.1729057606827 51.63127701878557 52.465189873417444)"><path d="M66.21 2.8 C74.25 4.57, 84.17 11.52, 90.28 17.84 C96.39 24.17, 101.09 32.31, 102.85 40.78 C104.61 49.24, 103.72 60.29, 100.83 68.64 C97.94 76.99, 92.01 85.08, 85.52 90.86 C79.03 96.64, 70.16 101.27, 61.87 103.33 C53.59 105.39, 43.81 105.77, 35.79 103.22 C27.78 100.67, 19.53 94.46, 13.8 88.03 C8.07 81.61, 3.23 73.25, 1.42 64.66 C-0.39 56.08, 0.38 45.14, 2.96 36.51 C5.54 27.89, 10.5 18.78, 16.91 12.92 C23.33 7.07, 31.9 2.6, 41.44 1.37 C50.98 0.15, 68.01 4.11, 74.17 5.57 C80.33 7.02, 78.73 9.26, 78.38 10.11 M75.09 6.59 C82.57 9.66, 90.64 15.2, 95.5 22.48 C100.35 29.77, 103.83 41.19, 104.21 50.32 C104.59 59.46, 101.98 69.71, 97.78 77.28 C93.58 84.86, 86.34 91.01, 78.99 95.76 C71.63 100.51, 62.13 104.99, 53.67 105.79 C45.2 106.58, 35.82 104.42, 28.18 100.51 C20.53 96.6, 12.56 89.83, 7.79 82.31 C3.02 74.8, 0.01 64.45, -0.43 55.41 C-0.87 46.37, 0.93 35.68, 5.16 28.07 C9.39 20.47, 17.53 14.33, 24.95 9.8 C32.36 5.26, 41.25 1.68, 49.66 0.88 C58.07 0.09, 71.45 4.18, 75.41 5.04 C79.37 5.91, 73.67 5.06, 73.4 6.06" stroke="none" stroke-width="0" fill="#a5d8ff"></path><path d="M54.65 0.17 C62.84 -0.11, 73.31 3.73, 80.4 8.5 C87.49 13.27, 93.28 20.88, 97.16 28.76 C101.05 36.65, 104.2 47, 103.7 55.82 C103.2 64.63, 98.81 74.37, 94.17 81.67 C89.52 88.96, 83.39 95.68, 75.84 99.57 C68.3 103.46, 57.49 105.41, 48.89 105.01 C40.29 104.6, 31.37 101.92, 24.24 97.16 C17.11 92.41, 10.24 84.31, 6.12 76.48 C1.99 68.66, -1.02 58.94, -0.5 50.22 C0.01 41.49, 4.31 31.7, 9.2 24.12 C14.09 16.54, 20.05 8.45, 28.84 4.72 C37.63 0.98, 55.07 1.61, 61.95 1.71 C68.83 1.81, 70.21 4.72, 70.1 5.34 M53.39 -0.82 C61.27 -1.12, 71.65 3.77, 79.02 8.96 C86.39 14.16, 93.63 22.76, 97.59 30.34 C101.54 37.92, 103.43 45.98, 102.74 54.44 C102.06 62.9, 98.14 73.46, 93.49 81.09 C88.83 88.73, 82.09 96.29, 74.82 100.24 C67.56 104.2, 58.23 105.6, 49.88 104.82 C41.52 104.04, 32.15 100.13, 24.69 95.57 C17.22 91, 9.02 84.95, 5.09 77.43 C1.16 69.91, 0.39 59.64, 1.11 50.47 C1.83 41.31, 4.91 30.13, 9.42 22.44 C13.93 14.76, 20.85 8.32, 28.18 4.37 C35.51 0.42, 48.91 -0.58, 53.4 -1.27 C57.89 -1.96, 55.23 -0.85, 55.14 0.21" stroke="#1971c2" stroke-width="2" fill="none"></path></g><g transform="translate(123.21646076192224 354.48241841412096) rotate(359.1729057606827 31.15833282470703 17.784810126582215)"><text x="31.15833282470703" y="0" font-family="Virgil, Segoe UI Emoji" font-size="14.227848101265755px" fill="#1971c2" text-anchor="middle" style="white-space: pre;" direction="ltr" dominant-baseline="text-before-edge">Search </text><text x="31.15833282470703" y="17.784810126582194" font-family="Virgil, Segoe UI Emoji" font-size="14.227848101265755px" fill="#1971c2" text-anchor="middle" style="white-space: pre;" direction="ltr" dominant-baseline="text-before-edge">Response</text></g><g stroke-linecap="round" transform="translate(25.529293493044406 568.7067975921093) rotate(3.3628627904188937 76.91930379746805 74.25158227848067)"><path d="M96.25 18.75 C111.99 30.41, 129.79 48.46, 134.59 56.25 C155.65 76.98, 150.96 77.77, 134.59 93.75 C124.76 104.48, 107.48 122.7, 96.25 129.75 C78.41 145.22, 79.44 150.07, 57.75 129.75 C43.8 116.57, 35.8 107.05, 19.25 93.75 C3.07 73.65, 2.96 73.79, 19.25 56.25 C34.93 48.04, 45.19 35.22, 57.75 18.75 C77.91 -1.57, 74.22 -1.38, 96.25 18.75" stroke="none" stroke-width="0" fill="#a5d8ff"></path><path d="M96.25 18.75 C108.86 30.66, 121.47 42.11, 134.59 56.25 M96.25 18.75 C106.31 27.16, 115.88 38.05, 134.59 56.25 M134.59 56.25 C154.47 75.09, 154.14 76.61, 134.59 93.75 M134.59 56.25 C155.56 76.22, 154.49 73.67, 134.59 93.75 M134.59 93.75 C122.27 104.86, 106.04 120.73, 96.25 129.75 M134.59 93.75 C122.6 104.45, 112.83 115.3, 96.25 129.75 M96.25 129.75 C75.43 147.29, 75.76 148.99, 57.75 129.75 M96.25 129.75 C76.76 150.77, 76.33 146.95, 57.75 129.75 M57.75 129.75 C50.84 123.68, 41.41 116.29, 19.25 93.75 M57.75 129.75 C48.95 121.8, 39.31 111.34, 19.25 93.75 M19.25 93.75 C-0.3 73.35, -1.56 73.19, 19.25 56.25 M19.25 93.75 C0.95 73.58, -2.2 74.64, 19.25 56.25 M19.25 56.25 C34.65 43.45, 46.5 28.26, 57.75 18.75 M19.25 56.25 C32.26 42.58, 46.67 28.33, 57.75 18.75 M57.75 18.75 C76.37 -1.79, 76.27 -0.54, 96.25 18.75 M57.75 18.75 C78.69 0.6, 77.36 0.47, 96.25 18.75" stroke="#1971c2" stroke-width="2" fill="none"></path></g><g transform="translate(71.33061256707128 625.0477786047675) rotate(3.3628627904188937 31.15833282470703 17.784810126582215)"><text x="31.15833282470703" y="0" font-family="Virgil, Segoe UI Emoji" font-size="14.227848101265755px" fill="#1971c2" text-anchor="middle" style="white-space: pre;" direction="ltr" dominant-baseline="text-before-edge">Search </text><text x="31.15833282470703" y="17.784810126582194" font-family="Virgil, Segoe UI Emoji" font-size="14.227848101265755px" fill="#1971c2" text-anchor="middle" style="white-space: pre;" direction="ltr" dominant-baseline="text-before-edge">Response</text></g><g stroke-linecap="round" transform="translate(9.992901087962764 9.993189997173658) rotate(0.7806889691367157 76.47468354430339 73.36234177215158)"><path d="M96.25 18.5 C106.81 28.41, 110.24 37.23, 133.7 55.5 C155.22 77.27, 156.34 77.51, 133.7 92.5 C127.02 97.37, 119.93 109.96, 96.25 128.22 C77.29 149.23, 75.07 145.09, 57.75 128.22 C50.7 117.83, 40.88 108.96, 19.25 92.5 C0.36 72.94, -1.47 77.54, 19.25 55.5 C34.72 39.24, 45.93 25.1, 57.75 18.5 C79.61 1.5, 78.54 0.32, 96.25 18.5" stroke="none" stroke-width="0" fill="#a5d8ff"></path><path d="M96.25 18.5 C107 30.01, 120.63 42.39, 133.7 55.5 M96.25 18.5 C105.32 26.68, 113.71 35.88, 133.7 55.5 M133.7 55.5 C154.44 75.06, 153.51 72.84, 133.7 92.5 M133.7 55.5 C154.3 75.89, 153.65 75.32, 133.7 92.5 M133.7 92.5 C125.75 101.42, 117.81 105.46, 96.25 128.22 M133.7 92.5 C121.49 103.13, 110 115.11, 96.25 128.22 M96.25 128.22 C76.79 148.69, 76.42 145.38, 57.75 128.22 M96.25 128.22 C74.98 146.5, 76.95 148.14, 57.75 128.22 M57.75 128.22 C42.14 114.47, 30.39 102.86, 19.25 92.5 M57.75 128.22 C43.26 113.99, 28.52 100.82, 19.25 92.5 M19.25 92.5 C0.83 72.77, -1.92 73.68, 19.25 55.5 M19.25 92.5 C1.83 73.97, 1.41 74.9, 19.25 55.5 M19.25 55.5 C35.48 42.76, 50.74 26.24, 57.75 18.5 M19.25 55.5 C30.24 43.99, 41.62 33.62, 57.75 18.5 M57.75 18.5 C78.47 0.52, 77.31 0.41, 96.25 18.5 M57.75 18.5 C79.03 1.28, 76.69 0.31, 96.25 18.5" stroke="#1971c2" stroke-width="2" fill="none"></path></g><g transform="translate(59.52190889099825 65.38955075666718) rotate(0.7806889691367157 26.70833396911621 17.784810126582215)"><text x="26.70833396911621" y="0" font-family="Virgil, Segoe UI Emoji" font-size="14.227848101265755px" fill="#1971c2" text-anchor="middle" style="white-space: pre;" direction="ltr" dominant-baseline="text-before-edge">Search </text><text x="26.70833396911621" y="17.784810126582194" font-family="Virgil, Segoe UI Emoji" font-size="14.227848101265755px" fill="#1971c2" text-anchor="middle" style="white-space: pre;" direction="ltr" dominant-baseline="text-before-edge">Query</text></g><g stroke-linecap="round"><g transform="translate(118.07376819147748 168.40732792229755) rotate(90 27.641631415452366 -19.855207378266414)"><path d="M0.62 -0.86 C5.16 -4.99, 18.11 -17.71, 27.29 -24.18 C36.46 -30.65, 50.96 -37.23, 55.66 -39.65 M-0.52 1.3 C3.92 -3.2, 17.42 -19.16, 26.68 -25.77 C35.95 -32.37, 50.24 -35.8, 55.09 -38.31" stroke="#1971c2" stroke-width="2" fill="none"></path></g><g transform="translate(118.07376819147748 168.40732792229755) rotate(90 27.641631415452366 -19.855207378266414)"><path d="M43.06 -27.67 C45.51 -30.08, 51.68 -33.69, 55.09 -38.31 M43.06 -27.67 C47.31 -30.58, 50.6 -34.71, 55.09 -38.31" stroke="#1971c2" stroke-width="2" fill="none"></path></g><g transform="translate(118.07376819147748 168.40732792229755) rotate(90 27.641631415452366 -19.855207378266414)"><path d="M39.04 -37.9 C42.76 -37.22, 50.16 -37.72, 55.09 -38.31 M39.04 -37.9 C44.53 -37.73, 49.05 -38.74, 55.09 -38.31" stroke="#1971c2" stroke-width="2" fill="none"></path></g></g><mask></mask><g stroke-linecap="round"><g transform="translate(150.4204288710273 306.8711313486069) rotate(90 13.315824424801463 -1.1177899394839415)"><path d="M0.3 0.47 C3.01 -0.09, 12.12 -4.02, 16.53 -3.76 C20.93 -3.51, 24.96 1.06, 26.72 2 M-0.21 0.23 C2.42 -0.2, 11.75 -3.21, 16.18 -3.05 C20.62 -2.9, 24.55 0.51, 26.41 1.16" stroke="#1971c2" stroke-width="2" fill="none"></path></g><g transform="translate(150.4204288710273 306.8711313486069) rotate(90 13.315824424801463 -1.1177899394839415)"><path d="M20.67 0.35 C22.93 0.71, 24.71 0.95, 26.41 1.16 M20.67 0.35 C22.9 0.56, 25.13 1.07, 26.41 1.16" stroke="#1971c2" stroke-width="2" fill="none"></path></g><g transform="translate(150.4204288710273 306.8711313486069) rotate(90 13.315824424801463 -1.1177899394839415)"><path d="M22.53 -3.15 C24.13 -1.55, 25.25 -0.09, 26.41 1.16 M22.53 -3.15 C24.07 -1.6, 25.59 0.24, 26.41 1.16" stroke="#1971c2" stroke-width="2" fill="none"></path></g></g><mask></mask><g stroke-linecap="round"><g transform="translate(133.22790972958728 438.0526244419284) rotate(90 11.092458240507426 0.4519823610180538)"><path d="M0.17 0.03 C3.83 0.17, 18.53 1.15, 22.27 1.35 M-0.4 -0.44 C3.17 -0.2, 18.07 0.49, 21.88 0.61" stroke="#1971c2" stroke-width="2" fill="none"></path></g><g transform="translate(133.22790972958728 438.0526244419284) rotate(90 11.092458240507426 0.4519823610180538)"><path d="M11.3 3.98 C15.07 2.85, 19.25 1.99, 21.88 0.61 M11.3 3.98 C15.2 3.05, 18.85 1.79, 21.88 0.61" stroke="#1971c2" stroke-width="2" fill="none"></path></g><g transform="translate(133.22790972958728 438.0526244419284) rotate(90 11.092458240507426 0.4519823610180538)"><path d="M11.61 -3.6 C15.3 -2.04, 19.37 -0.21, 21.88 0.61 M11.61 -3.6 C15.41 -1.86, 18.95 -0.44, 21.88 0.61" stroke="#1971c2" stroke-width="2" fill="none"></path></g></g><mask></mask><g stroke-linecap="round"><g transform="translate(122.16644124946765 563.4775928086437) rotate(90 28.56405942300546 10.571390277867977)"><path d="M0.18 0.97 C4.22 1.13, 15.05 -2.22, 24.6 1.03 C34.15 4.27, 51.93 16.93, 57.47 20.45 M-1.18 0.43 C2.74 0.24, 14.45 -4.26, 24.12 -0.76 C33.8 2.73, 51.16 17.93, 56.88 21.4" stroke="#1971c2" stroke-width="2" fill="none"></path></g><g transform="translate(122.16644124946765 563.4775928086437) rotate(90 28.56405942300546 10.571390277867977)"><path d="M37.98 15.96 C45.83 19.2, 51.56 20.09, 56.88 21.4 M37.98 15.96 C42.89 17.68, 46.22 17.79, 56.88 21.4" stroke="#1971c2" stroke-width="2" fill="none"></path></g><g transform="translate(122.16644124946765 563.4775928086437) rotate(90 28.56405942300546 10.571390277867977)"><path d="M45.9 5.08 C51.13 11.94, 54.23 16.44, 56.88 21.4 M45.9 5.08 C48.95 9.51, 50.37 12.24, 56.88 21.4" stroke="#1971c2" stroke-width="2" fill="none"></path></g></g><mask></mask><g stroke-linecap="round"><g transform="translate(329.0021364007566 490.8375834369483) rotate(90 -57.93731241164062 -88.6753904633913)"><path d="M0.9 0.64 C-9.91 -12.3, -45.34 -47.13, -64.68 -76.63 C-84.03 -106.13, -106.7 -159.69, -115.17 -176.36 M-0.09 -0.07 C-11.05 -12.95, -46.21 -45.77, -65.45 -75.46 C-84.7 -105.14, -107.29 -160.95, -115.56 -178.19" stroke="#2f9e44" stroke-width="2" fill="none"></path></g><g transform="translate(329.0021364007566 490.8375834369483) rotate(90 -57.93731241164062 -88.6753904633913)"><path d="M-98.16 -160.24 C-102.72 -165.2, -110.43 -170.25, -115.56 -178.19 M-98.16 -160.24 C-105.83 -167.67, -111.01 -173.91, -115.56 -178.19" stroke="#2f9e44" stroke-width="2" fill="none"></path></g><g transform="translate(329.0021364007566 490.8375834369483) rotate(90 -57.93731241164062 -88.6753904633913)"><path d="M-113.76 -153.25 C-113.47 -160.53, -116.25 -167.78, -115.56 -178.19 M-113.76 -153.25 C-115.49 -163.44, -114.71 -172.35, -115.56 -178.19" stroke="#2f9e44" stroke-width="2" fill="none"></path></g></g><mask></mask><g stroke-linecap="round" transform="translate(283.82992640442853 152.3776836680579) rotate(0 365 59.5)"><path d="M29.75 0 C168.84 0.95, 305.26 1.82, 700.25 0 C721.12 -3.43, 729.25 11.36, 730 29.75 C727.16 48.37, 729.16 63.79, 730 89.25 C731.96 107.3, 718.62 118.98, 700.25 119 C463.3 119.03, 225.79 117.43, 29.75 119 C10.78 116.42, -0.52 111.23, 0 89.25 C2.62 72.33, 1.25 60.02, 0 29.75 C-2.77 13.5, 13.25 -1.56, 29.75 0" stroke="none" stroke-width="0" fill="#ffec99"></path><path d="M29.75 0 C285.92 0.2, 541.43 -0.22, 700.25 0 M29.75 0 C221.65 0.43, 414.54 0.57, 700.25 0 M700.25 0 C722.01 0.42, 729.81 8.19, 730 29.75 M700.25 0 C719.36 -2.05, 731.38 11.12, 730 29.75 M730 29.75 C731.32 41.31, 731.58 57.02, 730 89.25 M730 29.75 C729.66 50.79, 729.84 72.78, 730 89.25 M730 89.25 C729.74 110.46, 720.7 120.99, 700.25 119 M730 89.25 C731.84 110.56, 720.52 120.01, 700.25 119 M700.25 119 C534.82 118.44, 370.75 119.27, 29.75 119 M700.25 119 C525.24 121.14, 350.78 121.08, 29.75 119 M29.75 119 C8.69 119.36, -0.36 110.13, 0 89.25 M29.75 119 C11.62 118.06, 0.38 107.99, 0 89.25 M0 89.25 C0.24 77.64, -0.36 65.1, 0 29.75 M0 89.25 C0.94 71.69, 1.03 54.6, 0 29.75 M0 29.75 C1.31 9.33, 11.47 -0.72, 29.75 0 M0 29.75 C1.35 9.36, 11.9 -1.33, 29.75 0" stroke="#2f9e44" stroke-width="2" fill="none"></path></g><g transform="translate(522.1882561773778 199.3776836680579) rotate(0 126.64167022705078 12.5)"><text x="126.64167022705078" y="0" font-family="Virgil, Segoe UI Emoji" font-size="20px" fill="#2f9e44" text-anchor="middle" style="white-space: pre;" direction="ltr" dominant-baseline="text-before-edge">Remote Processor Service</text></g><g stroke-linecap="round" transform="translate(363.82992640442853 280.3776836680579) rotate(0 242 47)"><path d="M5.6 6.19 C5.6 6.19, 5.6 6.19, 5.6 6.19 M5.6 6.19 C5.6 6.19, 5.6 6.19, 5.6 6.19 M0.48 24.27 C6.3 19.78, 11.85 12.74, 20.82 0.87 M0.48 24.27 C5.12 18.52, 7.67 14.65, 20.82 0.87 M0.62 36.31 C8.58 26.38, 20.36 13.07, 32.11 0.09 M0.62 36.31 C10.27 24.21, 21.51 12.61, 32.11 0.09 M0.75 48.35 C10.27 39.14, 20.18 29.61, 42.74 0.05 M0.75 48.35 C14.82 33.73, 27.58 17.85, 42.74 0.05 M0.88 60.39 C13.21 46.32, 22.63 34.7, 53.37 0.02 M0.88 60.39 C14.43 44.81, 27.71 29.97, 53.37 0.02 M0.36 73.19 C14.48 57.21, 28.1 44.49, 63.34 0.74 M0.36 73.19 C22.94 46.91, 47.44 18.98, 63.34 0.74 M2.46 82.97 C24.02 58.65, 44.82 35.53, 73.97 0.7 M2.46 82.97 C23.71 58.71, 44.52 35.42, 73.97 0.7 M7.84 88.97 C36.38 57.75, 62.97 24.54, 84.6 0.67 M7.84 88.97 C25.89 66.56, 44.11 45, 84.6 0.67 M15.19 92.71 C38.29 65.57, 64.24 35.19, 95.23 0.63 M15.19 92.71 C46.74 54.83, 78.88 18.26, 95.23 0.63 M24.51 94.18 C41.35 76.18, 59.7 55.48, 105.86 0.6 M24.51 94.18 C50.43 65.32, 76.72 36.83, 105.86 0.6 M35.14 94.15 C62.23 64.62, 85.98 34.17, 116.49 0.56 M35.14 94.15 C58.23 67.78, 81.35 41.4, 116.49 0.56 M45.77 94.11 C70.79 65.82, 94.03 41, 127.12 0.53 M45.77 94.11 C73.88 62.81, 103.23 28.46, 127.12 0.53 M56.4 94.08 C82.05 65.31, 108.91 31.95, 137.75 0.5 M56.4 94.08 C78.49 68.97, 101.03 41.72, 137.75 0.5 M67.03 94.04 C96.55 61.69, 124.22 31.32, 148.38 0.46 M67.03 94.04 C98.69 56.75, 129.82 21.77, 148.38 0.46 M77.66 94.01 C102.07 65.24, 127.03 35.35, 159.01 0.43 M77.66 94.01 C99.82 68.76, 122.7 43.19, 159.01 0.43 M88.29 93.98 C109.42 70.16, 128.39 49.57, 169.64 0.39 M88.29 93.98 C111.46 68.95, 132.56 45.86, 169.64 0.39 M98.92 93.94 C127.96 60.63, 153.79 30.66, 180.27 0.36 M98.92 93.94 C128.95 59.16, 158.46 25.75, 180.27 0.36 M109.55 93.91 C135.24 63.2, 162.71 32.08, 190.9 0.32 M109.55 93.91 C132.84 66.36, 155.32 39.28, 190.9 0.32 M120.18 93.87 C142.48 66.3, 165.83 39.22, 201.53 0.29 M120.18 93.87 C151.22 57.59, 183.83 19.25, 201.53 0.29 M130.81 93.84 C152.92 63.98, 177.88 36.96, 212.16 0.25 M130.81 93.84 C159.64 61.25, 188.72 28.4, 212.16 0.25 M141.44 93.8 C166.5 66.76, 188.65 37.73, 222.79 0.22 M141.44 93.8 C161.22 71.49, 180.72 50, 222.79 0.22 M152.07 93.77 C172.39 71.64, 190.6 49.91, 233.42 0.18 M152.07 93.77 C170.16 73.11, 187.8 53.36, 233.42 0.18 M162.7 93.73 C188.12 63.74, 216.87 32.8, 243.4 0.91 M162.7 93.73 C185.29 66.71, 208.46 40.54, 243.4 0.91 M173.33 93.7 C189.3 74.18, 205.46 56.04, 254.03 0.87 M173.33 93.7 C195.75 68.9, 218.44 42.84, 254.03 0.87 M183.96 93.67 C203.85 71.8, 224.47 50.1, 264.66 0.84 M183.96 93.67 C216.31 56.28, 249.78 20.64, 264.66 0.84 M194.59 93.63 C222.42 65.35, 244.93 34.89, 275.29 0.8 M194.59 93.63 C221.51 61.81, 249.12 31.16, 275.29 0.8 M205.22 93.6 C223.24 69.61, 244.53 48.74, 285.92 0.77 M205.22 93.6 C232.3 62.32, 259.25 31.28, 285.92 0.77 M215.2 94.32 C232.81 75.39, 251.53 54.31, 296.55 0.73 M215.2 94.32 C234.07 72.13, 254.83 49.02, 296.55 0.73 M225.83 94.28 C249.58 67.49, 270.37 44.59, 307.18 0.7 M225.83 94.28 C250.17 67.46, 274.11 40.88, 307.18 0.7 M236.46 94.25 C266.61 61.24, 299.71 23.83, 317.81 0.66 M236.46 94.25 C261.52 66.59, 285.13 38.58, 317.81 0.66 M247.09 94.21 C266.77 69.94, 285.78 46.06, 328.44 0.63 M247.09 94.21 C263.07 74.36, 282.18 54.92, 328.44 0.63 M257.72 94.18 C277.22 70.69, 296.77 51.06, 339.07 0.59 M257.72 94.18 C287.46 57.77, 320.39 21.62, 339.07 0.59 M268.35 94.14 C299.6 60.15, 330.66 25.38, 349.7 0.56 M268.35 94.14 C290.22 68.17, 311.37 44.39, 349.7 0.56 M278.98 94.11 C300.2 70.11, 319.79 45.86, 360.33 0.53 M278.98 94.11 C302.25 68.29, 326.48 40.65, 360.33 0.53 M289.61 94.08 C310.13 69.5, 331.61 45.01, 370.96 0.49 M289.61 94.08 C320.14 60.23, 349.43 25.18, 370.96 0.49 M300.24 94.04 C322.31 71.43, 342.5 46.24, 381.59 0.46 M300.24 94.04 C328.92 60, 357.86 26.35, 381.59 0.46 M310.87 94.01 C327.08 74.54, 345.15 56.8, 392.22 0.42 M310.87 94.01 C328.43 74.57, 346.13 53.07, 392.22 0.42 M321.5 93.97 C345.05 66.91, 368.1 40.85, 402.85 0.39 M321.5 93.97 C340.04 72.63, 358.66 51.95, 402.85 0.39 M332.13 93.94 C354.64 67.12, 381.4 40.37, 413.48 0.35 M332.13 93.94 C358.31 63.46, 382.93 34.97, 413.48 0.35 M342.76 93.9 C371.81 61.48, 399.95 29.44, 424.11 0.32 M342.76 93.9 C368.83 62.83, 395.88 33.78, 424.11 0.32 M353.39 93.87 C378.04 66.08, 401.28 36.35, 434.08 1.04 M353.39 93.87 C381.28 62.8, 409.45 28.98, 434.08 1.04 M364.02 93.83 C386.17 67.53, 403.61 43.17, 444.71 1 M364.02 93.83 C392.09 62.15, 421.97 28.01, 444.71 1 M374.65 93.8 C389.12 77.01, 407.61 58.37, 455.34 0.97 M374.65 93.8 C403.12 62.11, 429.85 28.4, 455.34 0.97 M385.28 93.76 C404.21 74.57, 420.53 50.69, 465.97 0.94 M385.28 93.76 C402.86 75.52, 419.84 55.63, 465.97 0.94 M395.25 94.48 C417.87 69.53, 434.77 47.3, 473.98 3.92 M395.25 94.48 C426.14 60.21, 456.5 23.96, 473.98 3.92 M405.88 94.45 C425.79 71.52, 443.76 50.49, 480.02 9.17 M405.88 94.45 C423.05 75.15, 440.43 54.24, 480.02 9.17 M416.51 94.42 C441.11 69.77, 459.77 42.04, 483.43 17.44 M416.51 94.42 C434.02 73.39, 451.73 52.59, 483.43 17.44 M427.14 94.38 C445.81 72.86, 463.05 53.72, 484.22 28.72 M427.14 94.38 C438.32 79.88, 450.55 65.19, 484.22 28.72 M437.77 94.35 C455.46 74.21, 472.57 57.15, 484.35 40.76 M437.77 94.35 C447.7 83.09, 457.51 72.24, 484.35 40.76 M448.4 94.31 C456.19 85.63, 465.68 76.08, 484.49 52.8 M448.4 94.31 C461.87 79.7, 474.56 63.96, 484.49 52.8 M459.03 94.28 C465.76 87.09, 473.32 75.92, 483.96 65.6 M459.03 94.28 C468.11 83.13, 477.11 72.55, 483.96 65.6 M470.97 92.73 C475.41 87.32, 479.64 82, 482.78 79.15 M470.97 92.73 C475.59 88.25, 478.06 83.82, 482.78 79.15" stroke="#ffec99" stroke-width="1" fill="none"></path><path d="M23.5 0 C180.55 -0.16, 339.04 -0.81, 460.5 0 M23.5 0 C158.26 -1.63, 293.27 -0.96, 460.5 0 M460.5 0 C477.9 0.21, 482.55 9.39, 484 23.5 M460.5 0 C477.64 -1.47, 481.82 5.91, 484 23.5 M484 23.5 C482.74 34.13, 484.07 42.93, 484 70.5 M484 23.5 C483.97 36.09, 483.05 47.4, 484 70.5 M484 70.5 C482.83 87.47, 477.05 95.75, 460.5 94 M484 70.5 C486.25 88.12, 477.05 95.42, 460.5 94 M460.5 94 C321.15 94.09, 180.48 95.23, 23.5 94 M460.5 94 C360.72 93.04, 260.45 93.15, 23.5 94 M23.5 94 C9.33 92.02, -0.83 85.56, 0 70.5 M23.5 94 C6.2 95.2, -2.14 84.22, 0 70.5 M0 70.5 C1.64 61.38, 1.24 50.49, 0 23.5 M0 70.5 C1.05 59.4, 0.9 50.16, 0 23.5 M0 23.5 C-0.69 8.22, 7.62 1.98, 23.5 0 M0 23.5 C1.55 7.38, 9.33 -0.35, 23.5 0" stroke="#2f9e44" stroke-width="2" fill="none"></path></g><g transform="translate(560.1132592291356 314.8776836680579) rotate(0 45.71666717529297 12.5)"><text x="45.71666717529297" y="0" font-family="Virgil, Segoe UI Emoji" font-size="20px" fill="#2f9e44" text-anchor="middle" style="white-space: pre;" direction="ltr" dominant-baseline="text-before-edge">Pipeline A</text></g><g stroke-linecap="round" transform="translate(393.82992640442853 357.3776836680579) rotate(0 53.5 48.5)"><path d="M5.8 6.37 C5.8 6.37, 5.8 6.37, 5.8 6.37 M5.8 6.37 C5.8 6.37, 5.8 6.37, 5.8 6.37 M0.68 24.44 C7.36 17.2, 12.27 9.38, 21.68 0.29 M0.68 24.44 C4.03 19.06, 8.83 13.81, 21.68 0.29 M0.16 37.24 C5.75 30.36, 13.99 22.75, 32.31 0.26 M0.16 37.24 C11.74 25.23, 22.85 12.27, 32.31 0.26 M0.29 49.28 C15.03 28.53, 32.41 8.51, 42.94 0.22 M0.29 49.28 C15.16 30.13, 32.45 13.04, 42.94 0.22 M0.43 61.32 C13.81 46.86, 25.7 31.4, 53.57 0.19 M0.43 61.32 C18.6 40.86, 35.98 19.08, 53.57 0.19 M0.56 73.36 C16.79 53.1, 35.95 30.78, 64.2 0.16 M0.56 73.36 C18.31 53.9, 36.28 33.87, 64.2 0.16 M2.66 83.14 C30.86 51.13, 56.79 20.44, 74.83 0.12 M2.66 83.14 C27.02 55.27, 52.58 26.22, 74.83 0.12 M6.07 91.41 C26.46 65.34, 49.56 41.36, 84.8 0.84 M6.07 91.41 C34.25 56.34, 63.73 24.09, 84.8 0.84 M13.42 95.15 C43.23 59.06, 76.42 23.43, 94.12 2.32 M13.42 95.15 C37.43 69.36, 60.08 42.04, 94.12 2.32 M22.74 96.62 C42.93 75.46, 58.23 54.97, 101.47 6.06 M22.74 96.62 C53.27 62.25, 83.54 26.53, 101.47 6.06 M33.37 96.59 C62.98 63.38, 87.6 30.59, 105.54 13.57 M33.37 96.59 C59.6 65.19, 86.71 35.57, 105.54 13.57 M44 96.55 C63.78 74.18, 83.27 50.05, 107.64 23.34 M44 96.55 C58.82 78.85, 73.98 61.76, 107.64 23.34 M53.98 97.27 C68.04 79.59, 82.95 64.51, 107.77 35.39 M53.98 97.27 C71.19 77.59, 87.36 58.51, 107.77 35.39 M64.61 97.24 C73.48 86.45, 86.54 73.77, 107.25 48.18 M64.61 97.24 C80.23 80.92, 95.27 64.44, 107.25 48.18 M75.24 97.2 C87.61 84.81, 99.16 69.1, 107.38 60.22 M75.24 97.2 C84.17 85.54, 93.97 74.93, 107.38 60.22 M85.87 97.17 C92.79 89.83, 97.74 85.75, 107.52 72.26 M85.87 97.17 C92.45 90.08, 99.5 81.73, 107.52 72.26" stroke="#ffec99" stroke-width="1" fill="none"></path><path d="M24.25 0 C40.09 -0.88, 53.46 1.46, 82.75 0 M24.25 0 C40.45 -0.46, 55.5 1.21, 82.75 0 M82.75 0 C99.66 -1.6, 108.86 8.95, 107 24.25 M82.75 0 C97.76 -0.84, 107.65 9.57, 107 24.25 M107 24.25 C106.19 41.49, 107.61 57.34, 107 72.75 M107 24.25 C107.6 38.43, 107.84 54.16, 107 72.75 M107 72.75 C107.36 89.68, 99.29 96.09, 82.75 97 M107 72.75 C105.59 87.16, 98.49 98.69, 82.75 97 M82.75 97 C65.43 94.72, 48.91 96.93, 24.25 97 M82.75 97 C62.79 96.98, 43.52 98.23, 24.25 97 M24.25 97 C9.86 95.89, -1.67 88.89, 0 72.75 M24.25 97 C6.67 98.07, -1.57 89.37, 0 72.75 M0 72.75 C-0.77 58.23, -0.18 42.11, 0 24.25 M0 72.75 C-0.51 55.82, -0.59 39.87, 0 24.25 M0 24.25 C0.39 6.78, 9.33 -0.42, 24.25 0 M0 24.25 C-1.63 8.01, 9.43 1.9, 24.25 0" stroke="#2f9e44" stroke-width="2" fill="none"></path></g><g transform="translate(399.688259992075 380.8776836680579) rotate(0 47.641666412353516 25)"><text x="47.641666412353516" y="0" font-family="Virgil, Segoe UI Emoji" font-size="20px" fill="#2f9e44" text-anchor="middle" style="white-space: pre;" direction="ltr" dominant-baseline="text-before-edge">Processor</text><text x="47.641666412353516" y="25" font-family="Virgil, Segoe UI Emoji" font-size="20px" fill="#2f9e44" text-anchor="middle" style="white-space: pre;" direction="ltr" dominant-baseline="text-before-edge">A1</text></g><g stroke-linecap="round" transform="translate(540.8299264044285 360.3776836680579) rotate(0 58 49)"><path d="M5.87 6.42 C5.87 6.42, 5.87 6.42, 5.87 6.42 M5.87 6.42 C5.87 6.42, 5.87 6.42, 5.87 6.42 M0.09 25.26 C5.14 16.42, 14.13 10.04, 21.74 0.35 M0.09 25.26 C5.28 19.01, 10.14 14.28, 21.74 0.35 M0.23 37.3 C12.49 25.5, 25.29 10.23, 32.37 0.32 M0.23 37.3 C6.85 29.92, 13.54 20.87, 32.37 0.32 M0.36 49.34 C14.38 34.23, 25.89 20.52, 43 0.28 M0.36 49.34 C15.19 33.46, 28.3 17.6, 43 0.28 M0.49 61.38 C17.72 40.53, 35.39 19.64, 53.63 0.25 M0.49 61.38 C12.26 46.96, 24.64 32.93, 53.63 0.25 M0.63 73.42 C17.59 56.04, 31.94 37.52, 64.26 0.21 M0.63 73.42 C21.53 47.3, 44.96 22.71, 64.26 0.21 M2.07 83.95 C30.45 51.23, 59.73 18.41, 74.89 0.18 M2.07 83.95 C23.26 58.17, 44.47 33.41, 74.89 0.18 M6.14 91.46 C24.65 70.7, 41.57 51.91, 85.52 0.14 M6.14 91.46 C31.52 61.06, 57.71 31.65, 85.52 0.14 M12.84 95.96 C39.75 63.89, 64.5 35.67, 96.15 0.11 M12.84 95.96 C33.11 73.83, 51.57 51.08, 96.15 0.11 M21.5 98.19 C40.84 76.98, 57.83 57.25, 104.16 3.09 M21.5 98.19 C51.23 66.18, 78.82 32.67, 104.16 3.09 M32.13 98.15 C60.25 64.7, 90.52 29.9, 110.85 7.59 M32.13 98.15 C53.63 75.21, 71.98 52.24, 110.85 7.59 M42.76 98.12 C61.12 76.52, 81.68 50.54, 114.92 15.1 M42.76 98.12 C56.87 80.67, 73.73 64.04, 114.92 15.1 M53.39 98.08 C76.61 71.45, 103.82 40.54, 115.71 26.39 M53.39 98.08 C68.53 78.51, 84.42 60.52, 115.71 26.39 M64.02 98.05 C75.93 86.24, 87.73 71.46, 115.85 38.43 M64.02 98.05 C83.59 74.44, 104.02 51.5, 115.85 38.43 M74.65 98.02 C86.48 80.58, 100.21 67.07, 115.98 50.47 M74.65 98.02 C87.96 81.61, 100.9 66.34, 115.98 50.47 M85.28 97.98 C96.86 86.64, 108.51 69.72, 115.46 63.26 M85.28 97.98 C93.45 88.01, 101.15 78.78, 115.46 63.26 M96.56 97.19 C102.63 89.67, 108.69 82.7, 115.59 75.31 M96.56 97.19 C101.72 91.79, 105.81 84.99, 115.59 75.31" stroke="#ffec99" stroke-width="1" fill="none"></path><path d="M24.5 0 C36.88 -0.2, 51.83 -0.37, 91.5 0 M24.5 0 C38.61 0.82, 54.08 1.14, 91.5 0 M91.5 0 C108.78 0.25, 114.83 9.07, 116 24.5 M91.5 0 C109.33 0.92, 117.25 10.37, 116 24.5 M116 24.5 C115.57 42.48, 114.97 64.27, 116 73.5 M116 24.5 C115.17 43.01, 116.25 59.15, 116 73.5 M116 73.5 C115.24 90.57, 108.48 98.11, 91.5 98 M116 73.5 C116.05 88.72, 108.84 98.34, 91.5 98 M91.5 98 C73.33 97.14, 58.41 99.02, 24.5 98 M91.5 98 C68.86 98.2, 46.91 97.89, 24.5 98 M24.5 98 C6.4 97.54, 0.58 90, 0 73.5 M24.5 98 C9.47 99.91, -0.16 88.51, 0 73.5 M0 73.5 C0.66 58.45, -0.19 41.23, 0 24.5 M0 73.5 C-0.58 60.56, 0.8 48.01, 0 24.5 M0 24.5 C-0.49 7.02, 9.05 -0.14, 24.5 0 M0 24.5 C1.67 9.5, 9.89 -1.44, 24.5 0" stroke="#2f9e44" stroke-width="2" fill="none"></path></g><g transform="translate(546.188259992075 384.3776836680579) rotate(0 52.641666412353516 25)"><text x="52.641666412353516" y="0" font-family="Virgil, Segoe UI Emoji" font-size="20px" fill="#2f9e44" text-anchor="middle" style="white-space: pre;" direction="ltr" dominant-baseline="text-before-edge">Processor </text><text x="52.641666412353516" y="25" font-family="Virgil, Segoe UI Emoji" font-size="20px" fill="#2f9e44" text-anchor="middle" style="white-space: pre;" direction="ltr" dominant-baseline="text-before-edge">A2</text></g><g stroke-linecap="round" transform="translate(686.8299264044285 360.3776836680579) rotate(0 61 47)"><path d="M3.15 9.36 C3.15 9.36, 3.15 9.36, 3.15 9.36 M3.15 9.36 C3.15 9.36, 3.15 9.36, 3.15 9.36 M3.94 20.65 C9.57 14.01, 12.39 9.06, 15.09 7.82 M3.94 20.65 C7.8 16.39, 9.76 12.4, 15.09 7.82 M3.41 33.44 C10.82 28.43, 14.7 19.78, 28.34 4.76 M3.41 33.44 C8.68 25.43, 15.3 20.26, 28.34 4.76 M3.55 45.48 C15 32.75, 23.47 21.94, 38.97 4.73 M3.55 45.48 C10.5 36.35, 18.41 27.95, 38.97 4.73 M3.68 57.52 C20.96 38.12, 35.82 22.28, 49.6 4.69 M3.68 57.52 C14.3 44.7, 23.24 33.51, 49.6 4.69 M3.81 69.57 C24.34 44.99, 45.29 20.38, 60.23 4.66 M3.81 69.57 C17.4 53.26, 32.05 37.75, 60.23 4.66 M5.26 80.1 C30.62 49.41, 55.47 22.31, 70.86 4.63 M5.26 80.1 C30.98 50.57, 58.13 19.16, 70.86 4.63 M7.36 89.87 C28.76 65.5, 50.99 38.35, 81.49 4.59 M7.36 89.87 C31.59 62.73, 55.65 35.55, 81.49 4.59 M14.71 93.61 C41.48 63.52, 66.03 34.71, 92.12 4.56 M14.71 93.61 C31.74 74.66, 46.87 57.11, 92.12 4.56 M24.03 95.09 C54.55 57.99, 86.52 23.47, 103.41 3.77 M24.03 95.09 C49.54 64.79, 75.62 33.87, 103.41 3.77 M34.66 95.05 C52.33 72.11, 70.48 53.15, 112.73 5.24 M34.66 95.05 C57.81 68.43, 79.91 41.96, 112.73 5.24 M45.29 95.02 C73 66.24, 101.56 31.44, 120.08 8.98 M45.29 95.02 C73.88 63.39, 102.45 30.37, 120.08 8.98 M55.92 94.98 C72.79 73.37, 89.84 53.33, 124.15 16.49 M55.92 94.98 C81.48 66.18, 105.85 37.6, 124.15 16.49 M66.55 94.95 C83.7 79.22, 98.93 61.74, 125.59 27.03 M66.55 94.95 C84.98 73.89, 101.89 55.45, 125.59 27.03 M77.18 94.91 C88.27 81.47, 98.47 68.63, 125.73 39.07 M77.18 94.91 C91.22 78.88, 105.2 60.53, 125.73 39.07 M87.81 94.88 C96.12 84.01, 105.18 73.17, 125.86 51.11 M87.81 94.88 C101.31 78.98, 115.81 64.07, 125.86 51.11 M99.09 94.09 C106.75 83.84, 115.73 72.94, 125.34 63.9 M99.09 94.09 C106.99 85.47, 115.65 76.41, 125.34 63.9 M110.38 93.3 C113.71 91.1, 116.98 86.56, 123.5 78.21 M110.38 93.3 C115.47 87.65, 119.12 83.3, 123.5 78.21" stroke="#ffec99" stroke-width="1" fill="none"></path><path d="M23.5 0 C53.36 0.55, 83.5 1.04, 98.5 0 M23.5 0 C45.19 -0.92, 67.05 -0.81, 98.5 0 M98.5 0 C112.43 -0.51, 121.28 9.2, 122 23.5 M98.5 0 C112.33 1.58, 120.92 8.53, 122 23.5 M122 23.5 C121.71 40.97, 123.23 59.42, 122 70.5 M122 23.5 C121.36 36.76, 122.5 50.74, 122 70.5 M122 70.5 C122.68 85.02, 116.16 93.89, 98.5 94 M122 70.5 C121.65 85.58, 112.35 94.59, 98.5 94 M98.5 94 C71.36 95.75, 45.1 93.7, 23.5 94 M98.5 94 C80.73 94.12, 63.92 93.87, 23.5 94 M23.5 94 C9.74 92.84, 0.55 86.37, 0 70.5 M23.5 94 C6.69 92.94, -1.93 86.04, 0 70.5 M0 70.5 C0.04 52.42, 0.14 33.75, 0 23.5 M0 70.5 C-1.17 59.45, 0.39 49.23, 0 23.5 M0 23.5 C-1.5 7.02, 9.29 1.3, 23.5 0 M0 23.5 C2.17 5.89, 5.99 -2.26, 23.5 0" stroke="#2f9e44" stroke-width="2" fill="none"></path></g><g transform="translate(695.188259992075 382.3776836680579) rotate(0 52.641666412353516 25)"><text x="52.641666412353516" y="0" font-family="Virgil, Segoe UI Emoji" font-size="20px" fill="#2f9e44" text-anchor="middle" style="white-space: pre;" direction="ltr" dominant-baseline="text-before-edge">Processor </text><text x="52.641666412353516" y="25" font-family="Virgil, Segoe UI Emoji" font-size="20px" fill="#2f9e44" text-anchor="middle" style="white-space: pre;" direction="ltr" dominant-baseline="text-before-edge">A3</text></g><g stroke-linecap="round" transform="translate(367.82992640442853 493.3776836680579) rotate(0 242 47)"><path d="M5.6 6.19 C5.6 6.19, 5.6 6.19, 5.6 6.19 M5.6 6.19 C5.6 6.19, 5.6 6.19, 5.6 6.19 M0.48 24.27 C4.5 19.01, 11.21 12.04, 20.82 0.87 M0.48 24.27 C8.07 14.99, 15.58 7.17, 20.82 0.87 M0.62 36.31 C12.09 22.76, 24.88 7.81, 32.11 0.09 M0.62 36.31 C9.87 26.08, 17.15 15.58, 32.11 0.09 M0.75 48.35 C12.35 36.22, 23.58 21.54, 42.74 0.05 M0.75 48.35 C9.42 37.01, 17.8 26.87, 42.74 0.05 M0.88 60.39 C16.55 42.61, 36.28 20.11, 53.37 0.02 M0.88 60.39 C18.26 41.49, 34.53 22.99, 53.37 0.02 M0.36 73.19 C25.54 45.79, 48.9 15.81, 63.34 0.74 M0.36 73.19 C20.63 49.32, 39.53 25.8, 63.34 0.74 M2.46 82.97 C29.27 51.92, 58.78 17.92, 73.97 0.7 M2.46 82.97 C16.58 66.36, 32.95 47.75, 73.97 0.7 M7.84 88.97 C24.88 69.92, 41.71 52.95, 84.6 0.67 M7.84 88.97 C32.22 61.73, 55.05 35.95, 84.6 0.67 M15.19 92.71 C34.46 70.7, 52.93 49.91, 95.23 0.63 M15.19 92.71 C37.12 67.94, 57.88 45, 95.23 0.63 M24.51 94.18 C56.64 58.89, 90.4 19.44, 105.86 0.6 M24.51 94.18 C56.78 59.41, 87.57 21.42, 105.86 0.6 M35.14 94.15 C58.42 69.12, 78.63 45.24, 116.49 0.56 M35.14 94.15 C57.38 67.23, 78.93 42.66, 116.49 0.56 M45.77 94.11 C76.79 57.46, 107.41 22.9, 127.12 0.53 M45.77 94.11 C67.63 68.45, 89.66 43.82, 127.12 0.53 M56.4 94.08 C83.71 66.78, 106.84 34.02, 137.75 0.5 M56.4 94.08 C80.71 63.78, 106.04 34.16, 137.75 0.5 M67.03 94.04 C94.8 65.19, 119.88 32.69, 148.38 0.46 M67.03 94.04 C85.48 70.14, 106.72 47.31, 148.38 0.46 M77.66 94.01 C104.44 62.17, 129.27 30.82, 159.01 0.43 M77.66 94.01 C109.02 59.26, 141.8 21.8, 159.01 0.43 M88.29 93.98 C113.13 64.49, 138.63 34.75, 169.64 0.39 M88.29 93.98 C110.92 66.93, 135.12 40.12, 169.64 0.39 M98.92 93.94 C126.24 64.37, 148.52 37.05, 180.27 0.36 M98.92 93.94 C126.39 63.34, 153.31 31.49, 180.27 0.36 M109.55 93.91 C139.53 58.49, 171.16 21.69, 190.9 0.32 M109.55 93.91 C141.33 56.05, 174.86 18.52, 190.9 0.32 M120.18 93.87 C150.71 58, 182.98 20.27, 201.53 0.29 M120.18 93.87 C145.81 63.74, 173.9 31.71, 201.53 0.29 M130.81 93.84 C153.23 67.25, 175.85 42.36, 212.16 0.25 M130.81 93.84 C150.54 72.11, 168.84 51.41, 212.16 0.25 M141.44 93.8 C167.31 64.83, 193.99 34.54, 222.79 0.22 M141.44 93.8 C160.55 72.72, 179.57 51.46, 222.79 0.22 M152.07 93.77 C171.81 66.62, 197.66 43.27, 233.42 0.18 M152.07 93.77 C172.37 71.6, 191.92 47.99, 233.42 0.18 M162.7 93.73 C179.48 75.64, 196.86 54.91, 243.4 0.91 M162.7 93.73 C193.71 57.85, 225.51 23.07, 243.4 0.91 M173.33 93.7 C189.02 73.9, 208.66 54.54, 254.03 0.87 M173.33 93.7 C190.29 73.46, 208.39 54.78, 254.03 0.87 M183.96 93.67 C211.62 61.87, 240.07 26, 264.66 0.84 M183.96 93.67 C200.62 74.72, 217.6 54.06, 264.66 0.84 M194.59 93.63 C211.72 69.18, 234.45 49.16, 275.29 0.8 M194.59 93.63 C215.74 69.7, 238.26 44.74, 275.29 0.8 M205.22 93.6 C226.75 71.36, 245.15 48.98, 285.92 0.77 M205.22 93.6 C227.55 69.09, 247.93 45.03, 285.92 0.77 M215.2 94.32 C238.5 71.35, 259.46 46.49, 296.55 0.73 M215.2 94.32 C235.67 72.42, 255.42 48.38, 296.55 0.73 M225.83 94.28 C250.87 63.88, 281.38 31.6, 307.18 0.7 M225.83 94.28 C255.43 60.82, 283.99 27.06, 307.18 0.7 M236.46 94.25 C257.98 70.63, 277.51 44.9, 317.81 0.66 M236.46 94.25 C267.99 58.65, 299.6 21.49, 317.81 0.66 M247.09 94.21 C269.88 67.87, 292.3 42.57, 328.44 0.63 M247.09 94.21 C262.88 74.74, 279 57, 328.44 0.63 M257.72 94.18 C275.77 74.85, 295.5 52.44, 339.07 0.59 M257.72 94.18 C275.22 73.31, 291.63 53.86, 339.07 0.59 M268.35 94.14 C293.88 61.14, 322.46 31.3, 349.7 0.56 M268.35 94.14 C284.74 75.37, 300.71 55.14, 349.7 0.56 M278.98 94.11 C296.81 74.79, 311.24 55.53, 360.33 0.53 M278.98 94.11 C298.24 71.73, 316.75 49.55, 360.33 0.53 M289.61 94.08 C312.33 68.65, 334.67 41.26, 370.96 0.49 M289.61 94.08 C312.81 68.91, 335.92 42.97, 370.96 0.49 M300.24 94.04 C320.49 71.56, 340.62 47.51, 381.59 0.46 M300.24 94.04 C324.12 69.01, 346.29 43.09, 381.59 0.46 M310.87 94.01 C337.54 64.88, 362.74 35.94, 392.22 0.42 M310.87 94.01 C342 56.62, 373.43 19.65, 392.22 0.42 M321.5 93.97 C346.4 67.71, 371.15 37.16, 402.85 0.39 M321.5 93.97 C347.21 64.44, 372.01 35.76, 402.85 0.39 M332.13 93.94 C353.2 69.52, 370.9 50.76, 413.48 0.35 M332.13 93.94 C353.14 70.03, 374.56 47.17, 413.48 0.35 M342.76 93.9 C362.99 71.26, 382.82 51.32, 424.11 0.32 M342.76 93.9 C364.23 69.83, 384.77 45.92, 424.11 0.32 M353.39 93.87 C371.59 72.85, 388.02 54.37, 434.08 1.04 M353.39 93.87 C371.35 73.77, 388.46 53.23, 434.08 1.04 M364.02 93.83 C387.21 67.35, 407.96 42.68, 444.71 1 M364.02 93.83 C395.21 58.75, 425.87 21.79, 444.71 1 M374.65 93.8 C402.82 62.17, 432.66 25.36, 455.34 0.97 M374.65 93.8 C404.06 58.34, 433.44 23.64, 455.34 0.97 M385.28 93.76 C414.99 59.1, 449.66 24.72, 465.97 0.94 M385.28 93.76 C406.92 69.21, 430.13 43.81, 465.97 0.94 M395.25 94.48 C413.88 71.63, 434.58 49.87, 473.98 3.92 M395.25 94.48 C414.02 72.11, 434.76 49.39, 473.98 3.92 M405.88 94.45 C421.74 75.78, 436.09 55.59, 480.02 9.17 M405.88 94.45 C426.8 69.39, 448.11 44.26, 480.02 9.17 M416.51 94.42 C438.99 70.97, 460.51 44.98, 483.43 17.44 M416.51 94.42 C438.74 67.45, 461.42 41.43, 483.43 17.44 M427.14 94.38 C438.99 80.16, 452.52 68.35, 484.22 28.72 M427.14 94.38 C442.96 75.24, 460.29 55.94, 484.22 28.72 M437.77 94.35 C455.71 75.73, 470.77 56.14, 484.35 40.76 M437.77 94.35 C453.72 75.98, 470.48 56.49, 484.35 40.76 M448.4 94.31 C460.14 83.26, 471.64 69.26, 484.49 52.8 M448.4 94.31 C461.82 81.31, 473.57 65.72, 484.49 52.8 M459.03 94.28 C469.53 82.79, 476.15 71.1, 483.96 65.6 M459.03 94.28 C468 84.7, 476.07 74.68, 483.96 65.6 M470.97 92.73 C474 87.34, 479.75 81.41, 482.78 79.15 M470.97 92.73 C476.3 88.38, 480.98 82.26, 482.78 79.15" stroke="#ffec99" stroke-width="1" fill="none"></path><path d="M23.5 0 C172.89 -1.62, 322.39 -2.28, 460.5 0 M23.5 0 C192.26 -1.61, 361.19 -1.54, 460.5 0 M460.5 0 C477.03 1.74, 483.32 7.33, 484 23.5 M460.5 0 C476.79 -2.13, 483.3 8.65, 484 23.5 M484 23.5 C485.23 41.99, 482.49 62.18, 484 70.5 M484 23.5 C484.23 40.99, 483.46 60.7, 484 70.5 M484 70.5 C485.26 86.63, 474.96 94.21, 460.5 94 M484 70.5 C484.14 87.6, 474.88 94.41, 460.5 94 M460.5 94 C346.51 94.68, 233.21 94.35, 23.5 94 M460.5 94 C346.65 94.56, 234.03 94.26, 23.5 94 M23.5 94 C6.88 95.38, -1.64 86.43, 0 70.5 M23.5 94 C7.84 91.9, 0.22 84.83, 0 70.5 M0 70.5 C-0.02 59.57, -0.6 45.45, 0 23.5 M0 70.5 C0.73 59.21, -0.58 50.32, 0 23.5 M0 23.5 C-0.19 6.48, 7.69 -0.15, 23.5 0 M0 23.5 C-2.07 5.78, 7.22 -0.47, 23.5 0" stroke="#2f9e44" stroke-width="2" fill="none"></path></g><g transform="translate(563.404927167368 527.8776836680579) rotate(0 46.42499923706055 12.5)"><text x="46.42499923706055" y="0" font-family="Virgil, Segoe UI Emoji" font-size="20px" fill="#2f9e44" text-anchor="middle" style="white-space: pre;" direction="ltr" dominant-baseline="text-before-edge">Pipeline B</text></g><g stroke-linecap="round"><g transform="translate(361.82992640442853 344.3776836680579) rotate(0 23.5 3.5)"><path d="M-1.08 1.19 C3.32 -0.07, 18.14 -10.77, 26.2 -8.62 C34.25 -6.47, 43.73 10.06, 47.25 14.08 M0.55 0.77 C4.83 -0.25, 17.68 -9.76, 25.35 -7.41 C33.03 -5.05, 42.89 11.47, 46.62 14.92" stroke="#f08c00" stroke-width="2" fill="none"></path></g><g transform="translate(361.82992640442853 344.3776836680579) rotate(0 23.5 3.5)"><path d="M33.26 6.92 C38.53 9.57, 39.97 11.91, 46.62 14.92 M33.26 6.92 C35.98 8.73, 38.52 10.46, 46.62 14.92" stroke="#f08c00" stroke-width="2" fill="none"></path></g><g transform="translate(361.82992640442853 344.3776836680579) rotate(0 23.5 3.5)"><path d="M41.53 0.2 C44.39 4.68, 43.49 8.93, 46.62 14.92 M41.53 0.2 C42.42 3.55, 43.11 6.79, 46.62 14.92" stroke="#f08c00" stroke-width="2" fill="none"></path></g></g><mask></mask><g stroke-linecap="round"><g transform="translate(500.82992640442853 409.3776836680579) rotate(0 20 -0.5)"><path d="M-0.15 0.52 C6.62 0.43, 33.48 -0.22, 40.13 -0.45 M0.77 0.3 C7.53 0.07, 33.35 -1.06, 39.77 -1.14" stroke="#f08c00" stroke-width="2" fill="none"></path></g><g transform="translate(500.82992640442853 409.3776836680579) rotate(0 20 -0.5)"><path d="M21.18 6.27 C25.93 5.02, 29.8 2.79, 39.77 -1.14 M21.18 6.27 C27.49 3.71, 33.46 1.33, 39.77 -1.14" stroke="#f08c00" stroke-width="2" fill="none"></path></g><g transform="translate(500.82992640442853 409.3776836680579) rotate(0 20 -0.5)"><path d="M20.77 -7.4 C25.61 -5.86, 29.56 -5.27, 39.77 -1.14 M20.77 -7.4 C27.2 -5.52, 33.3 -3.46, 39.77 -1.14" stroke="#f08c00" stroke-width="2" fill="none"></path></g></g><mask></mask><g stroke-linecap="round"><g transform="translate(655.8299264044285 414.3776836680579) rotate(0 14.5 -0.7957769308907245)"><path d="M0.38 0.11 C5.23 -0.14, 24.68 -1.66, 29.51 -1.96 M-0.09 -0.32 C4.7 -0.46, 24.46 -1.31, 29.34 -1.45" stroke="#f08c00" stroke-width="2" fill="none"></path></g><g transform="translate(655.8299264044285 414.3776836680579) rotate(0 14.5 -0.7957769308907245)"><path d="M15.89 4.01 C21.04 2.62, 25.41 0.4, 29.34 -1.45 M15.89 4.01 C19.73 2.75, 23.55 1.08, 29.34 -1.45" stroke="#f08c00" stroke-width="2" fill="none"></path></g><g transform="translate(655.8299264044285 414.3776836680579) rotate(0 14.5 -0.7957769308907245)"><path d="M15.53 -5.91 C20.77 -3.63, 25.27 -2.17, 29.34 -1.45 M15.53 -5.91 C19.43 -4.34, 23.36 -3.17, 29.34 -1.45" stroke="#f08c00" stroke-width="2" fill="none"></path></g></g><mask></mask><g stroke-linecap="round"><g transform="translate(788.8299264044285 356.3776836680579) rotate(0 29.5 -19)"><path d="M-0.96 0.77 C5.42 -5.55, 27.76 -34.22, 37.56 -37.72 C47.36 -41.23, 54.46 -23.17, 57.85 -20.26 M0.74 0.13 C6.98 -6.58, 26.48 -36.5, 36.38 -39.7 C46.28 -42.9, 56.61 -22.48, 60.14 -19.08" stroke="#f08c00" stroke-width="2" fill="none"></path></g><g transform="translate(788.8299264044285 356.3776836680579) rotate(0 29.5 -19)"><path d="M48.63 -26.76 C52.32 -25.31, 54.53 -24.28, 60.14 -19.08 M48.63 -26.76 C51.8 -24.26, 54.51 -23.07, 60.14 -19.08" stroke="#f08c00" stroke-width="2" fill="none"></path></g><g transform="translate(788.8299264044285 356.3776836680579) rotate(0 29.5 -19)"><path d="M56.26 -32.36 C58.1 -29.62, 58.48 -27.23, 60.14 -19.08 M56.26 -32.36 C57.25 -28.32, 57.84 -25.57, 60.14 -19.08" stroke="#f08c00" stroke-width="2" fill="none"></path></g></g><mask></mask><g stroke-linecap="round"><g transform="translate(850.8299264044285 336.3776836680579) rotate(0 -332.5 76.61541011709812)"><path d="M-0.95 -0.65 C-8.79 18.91, 62.87 90.76, -47.63 116.49 C-158.13 142.22, -560.94 147.82, -663.95 153.74 M0.75 1.62 C-6.64 21.42, 65.57 92.73, -45.24 117.74 C-156.06 142.74, -560.74 145.87, -664.16 151.67" stroke="#2f9e44" stroke-width="2" fill="none"></path></g><g transform="translate(850.8299264044285 336.3776836680579) rotate(0 -332.5 76.61541011709812)"><path d="M-640.96 142.36 C-647.91 143.46, -653.55 148.59, -664.16 151.67 M-640.96 142.36 C-649.84 144.62, -656 149.07, -664.16 151.67" stroke="#2f9e44" stroke-width="2" fill="none"></path></g><g transform="translate(850.8299264044285 336.3776836680579) rotate(0 -332.5 76.61541011709812)"><path d="M-640.4 159.45 C-647.37 156.27, -653.14 157.13, -664.16 151.67 M-640.4 159.45 C-649.38 155.84, -655.74 154.44, -664.16 151.67" stroke="#2f9e44" stroke-width="2" fill="none"></path></g></g><mask></mask></svg>
